<?xml version="1.0" encoding="UTF-8"?>
<svg width="32px" height="32px" viewBox="0 0 32 32" xmlns="http://www.w3.org/2000/svg">
  <style>
    .snowflake {
      fill: #005bbf;
    }
    .hand {
      fill: #e74c3c;
    }
  </style>
  <g>
    <!-- Snowflake -->
    <path class="snowflake" d="M16,2 L18,6 L16,8 L14,6 Z M16,30 L14,26 L16,24 L18,26 Z M30,16 L26,18 L24,16 L26,14 Z M2,16 L6,14 L8,16 L6,18 Z M26,26 L24,22 L22,24 L24,26 Z M6,6 L8,10 L10,8 L8,6 Z M26,6 L22,8 L24,10 L26,8 Z M6,26 L10,24 L8,22 L6,24 Z M16,10 L16,22 M10,16 L22,16 M12,12 L20,20 M20,12 L12,20" stroke="#005bbf" stroke-width="1.5" fill="none"/>
    
    <!-- Helping Hand -->
    <path class="hand" d="M17,15 C18.5,14.5 19.5,15 20,16 C20.5,17 19.5,19 19,20 C18.5,21 17,22 15,21 C13,20 12,19 13,17 C14,15 15.5,15.5 17,15 Z" stroke="#e74c3c" stroke-width="0.5"/>
  </g>
</svg> 